<?xml version="1.0" standalone="no"?>
<!DOCTYPE svg PUBLIC "-//W3C//DTD SVG 20010904//EN"
 "http://www.w3.org/TR/2001/REC-SVG-20010904/DTD/svg10.dtd">
<svg version="1.0" xmlns="http://www.w3.org/2000/svg"
 width="1200.000000pt" height="1200.000000pt" viewBox="0 0 1200.000000 1200.000000"
 preserveAspectRatio="xMidYMid meet">
<metadata>
Created by potrace 1.14, written by Peter Selinger 2001-2017
</metadata>
<g transform="translate(0.000000,1200.000000) scale(0.100000,-0.100000)"
fill="#000000" stroke="none">
<path d="M4650 9404 c-129 -52 -392 -184 -515 -259 -251 -152 -454 -313 -681
-540 -246 -245 -424 -478 -589 -770 -370 -652 -526 -1425 -439 -2175 161
-1396 1122 -2568 2461 -3004 144 -46 348 -99 364 -94 5 2 -59 48 -143 103
-888 584 -1453 1259 -1673 2003 -81 273 -109 474 -109 782 0 370 52 687 176
1070 66 205 201 540 217 540 3 0 24 -40 46 -88 120 -263 380 -648 674 -997
137 -163 303 -347 516 -568 308 -321 450 -491 617 -737 197 -289 327 -559 394
-818 14 -53 28 -104 31 -112 3 -8 14 21 24 65 69 288 227 613 452 930 148 209
280 366 491 585 662 686 1032 1165 1258 1625 l61 125 38 -84 c506 -1137 473
-2168 -96 -3051 -302 -466 -821 -953 -1408 -1321 -43 -26 -74 -50 -68 -52 16
-5 208 44 351 90 871 280 1601 878 2048 1678 540 967 598 2151 155 3170 -336
775 -945 1414 -1698 1786 -154 76 -344 158 -351 152 -1 -2 31 -41 72 -88 391
-447 511 -902 359 -1358 -130 -387 -431 -829 -935 -1372 -216 -233 -380 -437
-511 -637 -74 -112 -199 -357 -220 -430 -7 -24 -15 -43 -19 -43 -3 0 -14 25
-24 56 -30 94 -143 308 -238 450 -137 207 -255 351 -502 619 -552 598 -874
1101 -962 1505 -14 63 -19 125 -18 240 0 133 4 170 27 263 61 244 181 463 389
705 44 50 76 92 71 91 -4 0 -46 -16 -93 -35z"/>
</g>
</svg>
